<svg version="1.1" id="Layer_1" xmlns="http://www.w3.org/2000/svg" xmlns:xlink="http://www.w3.org/1999/xlink" x="0px" y="0px"
	 width="100%" viewBox="0 0 1920 1080" enable-background="new 0 0 1920 1080" xml:space="preserve">

<path fill="#FFF" opacity="1.000000" stroke="none" 
	d="
M661.999634,610.833374 
	C660.005737,610.888977 658.011780,610.993042 656.017883,610.993164 
	C490.001434,611.003540 323.984985,611.006042 157.508789,611.064148 
	C157.033768,539.056946 157.018494,466.994690 157.350372,394.500488 
	C159.229660,395.310394 160.887756,396.426147 162.275650,397.812408 
	C200.707840,436.198700 239.109375,474.615631 277.526459,513.017029 
	C281.789764,517.278687 283.235443,517.326172 287.407227,513.066284 
	C299.710571,500.502960 311.842438,487.770020 324.242126,475.303131 
	C351.267212,448.131531 378.460175,421.126801 405.454865,393.925171 
	C408.505859,390.850769 410.442291,390.575470 413.478729,393.863373 
	C421.600464,402.657806 429.887299,411.309021 438.336273,419.790314 
	C468.793213,450.363800 499.342682,480.845123 529.860657,511.357819 
	C535.060608,516.556885 536.945740,516.551086 542.175354,511.322052 
	C580.351318,473.150726 618.521912,434.974152 656.705994,396.811035 
	C658.028442,395.489319 659.475220,394.291931 661.999634,392.010223 
	C661.999634,466.022491 661.999634,538.427917 661.999634,610.833374 
z"/>
<path fill="#FFF" opacity="1.000000" stroke="none" 
	d="
M1764.965820,393.649414 
	C1764.308838,394.409637 1763.172241,394.605652 1763.096191,395.004211 
	C1760.336426,409.455414 1757.740112,423.937897 1754.981201,438.389282 
	C1752.497437,451.399170 1749.797974,464.367767 1747.288696,477.372925 
	C1744.470581,491.978424 1741.804199,506.613190 1738.988892,521.219238 
	C1735.747803,538.034729 1732.316284,554.814087 1729.151245,571.643677 
	C1725.981812,588.496704 1723.162476,605.415833 1719.959473,622.262268 
	C1717.214844,636.697510 1714.062012,651.054749 1711.246582,665.477112 
	C1709.355713,675.163391 1707.656128,684.889526 1706.052368,694.627747 
	C1705.605469,697.342102 1705.143188,699.079102 1701.698364,699.067200 
	C1669.043091,698.954163 1636.387207,698.999878 1603.218140,698.999878 
	C1587.679810,598.809631 1572.148804,498.666138 1556.449585,397.438416 
	C1555.414917,398.521759 1554.228882,399.174744 1554.074707,400.016602 
	C1552.616211,407.983765 1551.308960,415.979126 1550.005493,423.974030 
	C1547.683228,438.215607 1545.308350,452.449371 1543.117065,466.711273 
	C1541.291260,478.595459 1539.794678,490.530212 1537.972168,502.414978 
	C1536.178589,514.110229 1534.103516,525.762085 1532.254517,537.449158 
	C1530.757446,546.911743 1529.471191,556.407593 1527.986084,565.872131 
	C1525.749268,580.128479 1523.344971,594.358887 1521.154419,608.622131 
	C1519.329590,620.505249 1517.733765,632.423462 1515.992188,644.319580 
	C1514.675171,653.316345 1513.337280,662.310608 1511.917480,671.291687 
	C1510.677856,679.132202 1509.035522,686.921082 1508.132935,694.797119 
	C1507.761963,698.035034 1506.866943,699.059998 1503.670898,699.051392 
	C1472.173706,698.966248 1440.676025,698.952881 1409.179199,699.078613 
	C1406.298828,699.090149 1405.456909,697.758789 1405.013062,695.496094 
	C1400.348877,671.714966 1395.603027,647.949341 1391.064941,624.144165 
	C1387.248901,604.126343 1383.781982,584.042053 1379.963379,564.024780 
	C1377.179810,549.433044 1373.923706,534.931396 1371.151733,520.337585 
	C1367.619751,501.743469 1364.511597,483.068604 1360.944092,464.481598 
	C1357.840210,448.309204 1354.235718,432.233337 1351.073975,416.071503 
	C1348.901123,404.965027 1347.107178,393.784393 1345.088501,382.322327 
	C1365.825439,382.322327 1386.555542,382.322327 1407.973511,382.322327 
	C1423.744995,483.340210 1439.560913,584.643066 1455.376709,685.945862 
	C1455.979736,685.999817 1456.582764,686.053711 1457.185669,686.107666 
	C1472.572998,584.928223 1487.960205,483.748779 1503.398804,382.231171 
	C1504.417725,382.165619 1505.704956,382.011047 1506.992310,382.010498 
	C1538.822998,381.997101 1570.654175,382.073120 1602.484009,381.909790 
	C1606.576782,381.888824 1607.685791,383.269440 1608.112427,387.155457 
	C1609.193115,396.999878 1610.802368,406.787781 1612.268066,416.588135 
	C1613.804199,426.858398 1615.445312,437.112946 1616.992554,447.381592 
	C1618.396362,456.698364 1619.686646,466.032379 1621.116211,475.345123 
	C1622.691040,485.603485 1624.362671,495.847076 1626.001221,506.095642 
	C1627.947144,518.265137 1629.974854,530.422119 1631.831665,542.605103 
	C1633.325562,552.405823 1634.543457,562.248474 1636.021118,572.051880 
	C1637.494995,581.832153 1639.195557,591.578125 1640.693970,601.354919 
	C1642.195190,611.150024 1643.501587,620.975098 1645.017212,630.767883 
	C1646.926758,643.106079 1649.010376,655.417419 1650.920288,667.755615 
	C1651.741943,673.062805 1652.256226,678.417480 1653.063843,683.727234 
	C1653.187622,684.541565 1654.142822,685.229431 1654.713501,685.975708 
	C1655.141846,685.253540 1655.833862,684.574341 1655.959473,683.802795 
	C1658.669556,667.156433 1661.421265,650.515564 1663.943604,633.840149 
	C1666.106812,619.539001 1667.834351,605.171448 1670.048218,590.878723 
	C1672.155762,577.272766 1674.777466,563.746887 1676.922729,550.146240 
	C1678.796387,538.268372 1680.206787,526.317932 1682.033203,514.432007 
	C1683.829834,502.739899 1685.954102,491.098541 1687.818481,479.416412 
	C1689.302734,470.115845 1690.554077,460.778259 1692.013306,451.473511 
	C1694.274292,437.056488 1696.650879,422.657684 1698.924927,408.242676 
	C1700.013184,401.344238 1701.592529,394.444214 1701.793335,387.511383 
	C1701.938477,382.507477 1703.794189,381.877411 1708.032837,381.919220 
	C1726.695435,382.103210 1745.361206,381.993835 1764.488403,381.935730 
	C1764.960938,385.647003 1764.970825,389.413300 1764.965820,393.649414 
z"/>
<path fill="#FFF" opacity="1.000000" stroke="none" 
	d="
M157.034119,651.356873 
	C159.046799,650.920593 161.044495,650.995056 163.042191,650.995117 
	C328.698975,651.000427 494.355743,651.000000 660.012512,651.000000 
	C661.821594,651.000000 663.630737,651.000000 665.718872,651.000000 
	C665.718872,666.976135 665.718872,682.713440 665.718872,699.009155 
	C496.487091,699.009155 327.230743,699.009155 157.511734,699.064209 
	C157.039078,683.357056 157.029099,667.594971 157.034119,651.356873 
z"/>
<path fill="#FFF" opacity="1.000000" stroke="none" 
	d="
M409.304779,838.965271 
	C407.959229,837.506165 407.264618,835.835083 406.082703,834.649902 
	C375.502716,803.986755 344.870728,773.375610 314.255341,742.747742 
	C313.037231,741.529236 311.894196,740.235657 309.801697,738.000000 
	C315.415192,738.000000 319.655609,738.000000 323.896057,738.000000 
	C340.052490,738.000000 356.210663,738.126953 372.364075,737.906616 
	C376.185150,737.854492 378.762756,739.065613 381.362335,741.755737 
	C390.156769,750.856628 399.291321,759.628784 408.097015,768.719177 
	C410.679260,771.384766 412.295868,771.409241 414.892853,768.729126 
	C424.162506,759.162598 433.612244,749.768066 443.130890,740.448425 
	C444.388367,739.217346 446.433350,738.117065 448.122864,738.103516 
	C468.108917,737.942566 488.096741,737.989380 508.083984,738.026367 
	C509.291290,738.028625 510.497864,738.410095 512.633850,738.772949 
	C479.022552,772.409119 446.106934,805.349121 413.156067,838.620728 
	C411.990082,838.961426 410.859375,838.970520 409.304779,838.965271 
z"/>
<path fill="#FFF" opacity="1.000000" stroke="none" 
	d="
M662.439880,610.910156 
	C661.999634,538.427917 661.999634,466.022491 661.999634,392.010223 
	C659.475220,394.291931 658.028442,395.489319 656.705994,396.811035 
	C618.521912,434.974152 580.351318,473.150726 542.175354,511.322052 
	C536.945740,516.551086 535.060608,516.556885 529.860657,511.357819 
	C499.342682,480.845123 468.793213,450.363800 438.336273,419.790314 
	C429.887299,411.309021 421.600464,402.657806 413.478729,393.863373 
	C410.442291,390.575470 408.505859,390.850769 405.454865,393.925171 
	C378.460175,421.126801 351.267212,448.131531 324.242126,475.303131 
	C311.842438,487.770020 299.710571,500.502960 287.407227,513.066284 
	C283.235443,517.326172 281.789764,517.278687 277.526459,513.017029 
	C239.109375,474.615631 200.707840,436.198700 162.275650,397.812408 
	C160.887756,396.426147 159.229660,395.310394 157.354065,394.034485 
	C157.013931,391.595032 157.017227,389.189636 157.034760,386.332489 
	C158.611191,386.999084 160.365829,387.924683 161.707565,389.263947 
	C201.324188,428.806519 240.943909,468.346375 280.401886,508.046906 
	C283.714142,511.379486 285.456940,511.363251 288.635529,508.011230 
	C297.114655,499.069427 306.029510,490.542389 314.704285,481.784210 
	C345.608673,450.582855 376.547668,419.415070 407.286774,388.051544 
	C410.815186,384.451477 412.649353,384.973724 415.873413,388.241547 
	C455.140625,428.041168 494.546967,467.703522 533.881226,507.437134 
	C535.145813,508.714569 536.026367,510.372284 537.632019,512.615845 
	C580.812805,469.419281 622.994751,427.221954 665.686768,384.514313 
	C665.819946,386.318726 665.988525,387.539215 665.988708,388.759705 
	C666.001282,461.393097 666.002563,534.026489 665.987549,606.659851 
	C665.987122,608.780518 666.933350,611.717163 662.439880,610.910156 
z"/>
<path fill="#FFF" opacity="1.000000" stroke="none" 
	d="
M253.959808,406.117065 
	C252.899429,405.157349 251.839035,404.197662 249.839096,402.387634 
	C251.662201,401.051941 253.295990,400.150116 254.564743,398.882812 
	C304.936401,348.570160 355.277679,298.227051 405.601379,247.866348 
	C406.847839,246.618942 407.852081,245.129456 408.918396,243.404053 
	C410.001526,243.043823 411.135620,243.032410 412.694824,243.034729 
	C414.162689,244.284027 415.121399,245.603577 416.260284,246.743057 
	C466.880310,297.389435 517.514771,348.021362 568.158142,398.644409 
	C569.451172,399.936981 570.862000,401.111694 572.604919,402.692383 
	C570.787048,404.596832 569.230591,406.227356 567.343140,407.614929 
	C566.114258,405.854370 565.486633,404.066986 564.279785,402.857910 
	C513.927307,352.414734 463.505493,302.040802 413.172821,251.577927 
	C410.431000,248.829025 408.695770,248.695862 405.882019,251.517517 
	C356.142639,301.396118 306.304749,351.176453 256.559235,401.049011 
	C255.282425,402.329071 254.808273,404.409729 253.959808,406.117065 
z"/>
<path fill="#FFF" opacity="1.000000" stroke="none" 
	d="
M822.000000,439.000000 
	C822.000000,419.857117 822.000000,401.214203 822.000000,382.286133 
	C889.634277,382.286133 957.036804,382.286133 1024.719849,382.286133 
	C1024.719849,398.311951 1024.719849,414.382812 1024.719849,430.864319 
	C976.671997,430.864319 928.601013,430.864319 880.265747,430.864319 
	C880.265747,472.662903 880.265747,514.053650 880.265747,556.143738 
	C882.165588,554.648499 883.899902,553.537415 885.328674,552.118713 
	C896.562317,540.964355 907.699646,529.712708 918.983459,518.609741 
	C920.252075,517.361450 922.243958,516.117859 923.906799,516.109192 
	C953.057617,515.958130 982.209473,516.000061 1011.680420,516.000061 
	C1011.680420,532.231201 1011.680420,548.302856 1011.680420,564.785400 
	C968.084839,564.785400 924.346985,564.785400 880.201111,564.785400 
	C880.201111,609.595398 880.201111,653.999939 880.201111,698.701599 
	C860.724915,698.701599 841.653992,698.701599 822.000000,698.701599 
	C822.000000,612.352051 822.000000,525.926025 822.000000,439.000000 
z"/>
<path fill="#FFF" opacity="1.000000" stroke="none" 
	d="
M1307.110840,426.045654 
	C1307.044189,427.541870 1306.977417,429.038055 1306.895508,430.875671 
	C1275.792236,430.875671 1244.688843,430.875671 1213.193359,430.875671 
	C1213.193359,520.276001 1213.193359,609.335815 1213.193359,698.697510 
	C1193.735107,698.697510 1174.666138,698.697510 1155.230713,698.697510 
	C1155.158081,697.380615 1155.010132,695.946411 1155.009888,694.512207 
	C1154.998657,624.524963 1154.973389,554.537659 1155.119019,484.550751 
	C1155.123779,482.265839 1156.314575,479.427551 1157.916138,477.789032 
	C1171.775024,463.610535 1185.857178,449.650391 1199.864502,435.616852 
	C1201.002075,434.477264 1202.077271,433.275543 1203.937744,431.299133 
	C1154.801514,431.299133 1106.664551,431.299133 1058.012939,431.299133 
	C1058.012939,416.129761 1058.012939,401.528107 1058.547852,386.463226 
	C1135.951538,386.000000 1212.820190,385.999969 1289.688965,386.000122 
	C1291.020020,386.000122 1292.355103,386.067993 1293.681396,385.989258 
	C1296.541870,385.819397 1297.685913,387.003845 1298.122437,389.966248 
	C1299.180298,397.146942 1300.445801,404.322693 1302.152100,411.373444 
	C1303.361572,416.371460 1305.427246,421.162323 1307.110840,426.045654 
z"/>
<path fill="#FFF" opacity="1.000000" stroke="none" 
	d="
M254.078766,406.427429 
	C254.808273,404.409729 255.282425,402.329071 256.559235,401.049011 
	C306.304749,351.176453 356.142639,301.396118 405.882019,251.517517 
	C408.695770,248.695862 410.431000,248.829025 413.172821,251.577927 
	C463.505493,302.040802 513.927307,352.414734 564.279785,402.857910 
	C565.486633,404.066986 566.114258,405.854370 567.026062,407.744568 
	C558.392456,416.862732 549.651794,425.519226 541.151306,434.405426 
	C538.424133,437.256287 536.960693,435.515076 535.120911,433.671631 
	C518.997437,417.516174 502.866760,401.367920 486.726471,385.229279 
	C462.221313,360.726654 437.706818,336.233398 413.043030,311.079102 
	C411.378937,308.344177 410.477203,308.770416 410.042175,311.114807 
	C409.170105,312.091614 408.343719,313.114014 407.419434,314.038605 
	C367.750885,353.720062 328.039948,393.359314 288.464142,433.133026 
	C285.438995,436.173279 283.768890,436.544983 280.630402,433.241211 
	C272.039429,424.197815 263.037140,415.545166 254.078766,406.427429 
z"/>
<path fill="#FFF" opacity="1.000000" stroke="none" 
	d="
M1307.474365,426.021393 
	C1305.427246,421.162323 1303.361572,416.371460 1302.152100,411.373444 
	C1300.445801,404.322693 1299.180298,397.146942 1298.122437,389.966248 
	C1297.685913,387.003845 1296.541870,385.819397 1293.681396,385.989258 
	C1292.355103,386.067993 1291.020020,386.000122 1289.688965,386.000122 
	C1212.820190,385.999969 1135.951538,386.000000 1058.624756,386.000183 
	C1058.111328,384.843872 1058.056030,383.687378 1057.975464,382.000000 
	C1059.886963,382.000000 1061.659790,382.000000 1063.432495,382.000000 
	C1140.511963,382.000000 1217.591553,382.051636 1294.670654,381.878540 
	C1299.569702,381.867554 1301.900879,382.672272 1302.684082,388.024994 
	C1304.413086,399.842651 1306.922485,411.545166 1308.990112,423.316345 
	C1309.130859,424.117737 1308.245850,425.099335 1307.474365,426.021393 
z"/>
<path fill="#FFF" opacity="1.000000" stroke="none" 
	d="
M410.404724,311.061951 
	C410.477203,308.770416 411.378937,308.344177 412.923950,310.768555 
	C412.227814,311.079742 411.497559,311.044403 410.404724,311.061951 
z"/>
</svg>